<mxfile host="app.diagrams.net" modified="2024-01-09T08:09:07.242Z" agent="Mozilla/5.0 (Windows NT 10.0; Win64; x64) AppleWebKit/537.36 (KHTML, like Gecko) Chrome/120.0.0.0 Safari/537.36 Edg/120.0.0.0" etag="j8CFlyqbQwWV42Y2e2uN" version="22.1.16" type="github">
  <diagram name="第 1 页" id="IRaudZAVaMdEsycl-TIE">
    <mxGraphModel dx="1426" dy="751" grid="1" gridSize="10" guides="1" tooltips="1" connect="1" arrows="1" fold="1" page="1" pageScale="1" pageWidth="827" pageHeight="1169" math="0" shadow="0">
      <root>
        <mxCell id="0" />
        <mxCell id="1" parent="0" />
        <mxCell id="FhZEgIiry43uXNgDlU4w-84" value="" style="endArrow=none;dashed=1;html=1;rounded=0;entryX=0.5;entryY=1;entryDx=0;entryDy=0;" edge="1" parent="1" target="FhZEgIiry43uXNgDlU4w-7">
          <mxGeometry width="50" height="50" relative="1" as="geometry">
            <mxPoint x="920" y="720" as="sourcePoint" />
            <mxPoint x="930" y="330" as="targetPoint" />
          </mxGeometry>
        </mxCell>
        <mxCell id="FhZEgIiry43uXNgDlU4w-83" value="" style="endArrow=none;dashed=1;html=1;rounded=0;entryX=0.5;entryY=1;entryDx=0;entryDy=0;" edge="1" parent="1" target="FhZEgIiry43uXNgDlU4w-5">
          <mxGeometry width="50" height="50" relative="1" as="geometry">
            <mxPoint x="800" y="720" as="sourcePoint" />
            <mxPoint x="770" y="350" as="targetPoint" />
          </mxGeometry>
        </mxCell>
        <mxCell id="FhZEgIiry43uXNgDlU4w-82" value="" style="endArrow=none;dashed=1;html=1;rounded=0;entryX=0.5;entryY=1;entryDx=0;entryDy=0;" edge="1" parent="1" target="FhZEgIiry43uXNgDlU4w-4">
          <mxGeometry width="50" height="50" relative="1" as="geometry">
            <mxPoint x="630" y="720" as="sourcePoint" />
            <mxPoint x="620" y="340" as="targetPoint" />
          </mxGeometry>
        </mxCell>
        <mxCell id="FhZEgIiry43uXNgDlU4w-81" value="" style="endArrow=none;dashed=1;html=1;rounded=0;entryX=0.5;entryY=1;entryDx=0;entryDy=0;" edge="1" parent="1" target="FhZEgIiry43uXNgDlU4w-3">
          <mxGeometry width="50" height="50" relative="1" as="geometry">
            <mxPoint x="490" y="720" as="sourcePoint" />
            <mxPoint x="480" y="340" as="targetPoint" />
          </mxGeometry>
        </mxCell>
        <mxCell id="FhZEgIiry43uXNgDlU4w-80" value="" style="endArrow=none;dashed=1;html=1;rounded=0;entryX=0.5;entryY=1;entryDx=0;entryDy=0;" edge="1" parent="1" target="FhZEgIiry43uXNgDlU4w-2">
          <mxGeometry width="50" height="50" relative="1" as="geometry">
            <mxPoint x="355" y="720" as="sourcePoint" />
            <mxPoint x="370" y="350" as="targetPoint" />
          </mxGeometry>
        </mxCell>
        <mxCell id="FhZEgIiry43uXNgDlU4w-78" value="" style="endArrow=none;dashed=1;html=1;rounded=0;entryX=0.5;entryY=1;entryDx=0;entryDy=0;" edge="1" parent="1" target="FhZEgIiry43uXNgDlU4w-1">
          <mxGeometry width="50" height="50" relative="1" as="geometry">
            <mxPoint x="225" y="720" as="sourcePoint" />
            <mxPoint x="560" y="340" as="targetPoint" />
          </mxGeometry>
        </mxCell>
        <mxCell id="FhZEgIiry43uXNgDlU4w-75" value="" style="endArrow=none;dashed=1;html=1;rounded=0;entryX=0.5;entryY=1;entryDx=0;entryDy=0;" edge="1" parent="1" target="FhZEgIiry43uXNgDlU4w-23">
          <mxGeometry width="50" height="50" relative="1" as="geometry">
            <mxPoint x="75" y="720" as="sourcePoint" />
            <mxPoint x="65" y="350" as="targetPoint" />
          </mxGeometry>
        </mxCell>
        <mxCell id="FhZEgIiry43uXNgDlU4w-1" value="&lt;font style=&quot;font-size: 14px;&quot;&gt;省CRM&lt;/font&gt;" style="rounded=1;whiteSpace=wrap;html=1;fillColor=#dae8fc;strokeColor=#6c8ebf;" vertex="1" parent="1">
          <mxGeometry x="180" y="270" width="90" height="40" as="geometry" />
        </mxCell>
        <mxCell id="FhZEgIiry43uXNgDlU4w-2" value="&lt;font style=&quot;font-size: 14px;&quot;&gt;集团订单中心&lt;/font&gt;" style="rounded=1;whiteSpace=wrap;html=1;fillColor=#dae8fc;strokeColor=#6c8ebf;" vertex="1" parent="1">
          <mxGeometry x="310" y="270" width="90" height="40" as="geometry" />
        </mxCell>
        <mxCell id="FhZEgIiry43uXNgDlU4w-3" value="&lt;font style=&quot;font-size: 14px;&quot;&gt;集团编排&lt;/font&gt;" style="rounded=1;whiteSpace=wrap;html=1;fillColor=#dae8fc;strokeColor=#6c8ebf;" vertex="1" parent="1">
          <mxGeometry x="445" y="270" width="90" height="40" as="geometry" />
        </mxCell>
        <mxCell id="FhZEgIiry43uXNgDlU4w-4" value="&lt;font style=&quot;font-size: 14px;&quot;&gt;AI业务中台&lt;/font&gt;" style="rounded=1;whiteSpace=wrap;html=1;fillColor=#dae8fc;strokeColor=#6c8ebf;" vertex="1" parent="1">
          <mxGeometry x="585" y="270" width="90" height="40" as="geometry" />
        </mxCell>
        <mxCell id="FhZEgIiry43uXNgDlU4w-5" value="&lt;font style=&quot;font-size: 14px;&quot;&gt;星辰智慧大脑平台&lt;/font&gt;" style="rounded=1;whiteSpace=wrap;html=1;fillColor=#dae8fc;strokeColor=#6c8ebf;" vertex="1" parent="1">
          <mxGeometry x="740" y="270" width="120" height="40" as="geometry" />
        </mxCell>
        <mxCell id="FhZEgIiry43uXNgDlU4w-7" value="&lt;font style=&quot;font-size: 14px;&quot;&gt;省编排&lt;/font&gt;" style="rounded=1;whiteSpace=wrap;html=1;fillColor=#dae8fc;strokeColor=#6c8ebf;" vertex="1" parent="1">
          <mxGeometry x="875" y="270" width="90" height="40" as="geometry" />
        </mxCell>
        <mxCell id="FhZEgIiry43uXNgDlU4w-8" value="&lt;font style=&quot;font-size: 14px;&quot;&gt;省综调&lt;/font&gt;" style="rounded=1;whiteSpace=wrap;html=1;fillColor=#dae8fc;strokeColor=#6c8ebf;" vertex="1" parent="1">
          <mxGeometry x="1005" y="270" width="90" height="40" as="geometry" />
        </mxCell>
        <mxCell id="FhZEgIiry43uXNgDlU4w-9" value="" style="rounded=0;whiteSpace=wrap;html=1;fillColor=#dae8fc;strokeColor=#6c8ebf;" vertex="1" parent="1">
          <mxGeometry x="65" y="328" width="20" height="150" as="geometry" />
        </mxCell>
        <mxCell id="FhZEgIiry43uXNgDlU4w-10" value="" style="rounded=0;whiteSpace=wrap;html=1;fillColor=#dae8fc;strokeColor=#6c8ebf;" vertex="1" parent="1">
          <mxGeometry x="215" y="340" width="20" height="51" as="geometry" />
        </mxCell>
        <mxCell id="FhZEgIiry43uXNgDlU4w-11" value="" style="endArrow=classic;html=1;rounded=0;entryX=0;entryY=0.5;entryDx=0;entryDy=0;exitX=1;exitY=0.25;exitDx=0;exitDy=0;" edge="1" parent="1" source="FhZEgIiry43uXNgDlU4w-9" target="FhZEgIiry43uXNgDlU4w-10">
          <mxGeometry relative="1" as="geometry">
            <mxPoint x="80" y="380.5" as="sourcePoint" />
            <mxPoint x="225" y="380" as="targetPoint" />
          </mxGeometry>
        </mxCell>
        <mxCell id="FhZEgIiry43uXNgDlU4w-12" value="创建客户" style="edgeLabel;resizable=0;html=1;align=center;verticalAlign=middle;" connectable="0" vertex="1" parent="FhZEgIiry43uXNgDlU4w-11">
          <mxGeometry relative="1" as="geometry" />
        </mxCell>
        <mxCell id="FhZEgIiry43uXNgDlU4w-14" value="" style="rounded=0;whiteSpace=wrap;html=1;fillColor=#dae8fc;strokeColor=#6c8ebf;" vertex="1" parent="1">
          <mxGeometry x="215" y="407" width="20" height="130" as="geometry" />
        </mxCell>
        <mxCell id="FhZEgIiry43uXNgDlU4w-15" value="" style="endArrow=classic;html=1;rounded=0;exitX=1;exitY=0.75;exitDx=0;exitDy=0;entryX=0;entryY=0.25;entryDx=0;entryDy=0;" edge="1" parent="1" source="FhZEgIiry43uXNgDlU4w-9" target="FhZEgIiry43uXNgDlU4w-14">
          <mxGeometry relative="1" as="geometry">
            <mxPoint x="100" y="432" as="sourcePoint" />
            <mxPoint x="225" y="430" as="targetPoint" />
          </mxGeometry>
        </mxCell>
        <mxCell id="FhZEgIiry43uXNgDlU4w-16" value="订购星辰智慧大脑产品" style="edgeLabel;resizable=0;html=1;align=center;verticalAlign=middle;" connectable="0" vertex="1" parent="FhZEgIiry43uXNgDlU4w-15">
          <mxGeometry relative="1" as="geometry" />
        </mxCell>
        <mxCell id="FhZEgIiry43uXNgDlU4w-17" value="" style="rounded=0;whiteSpace=wrap;html=1;fillColor=#dae8fc;strokeColor=#6c8ebf;" vertex="1" parent="1">
          <mxGeometry x="345" y="420" width="20" height="70" as="geometry" />
        </mxCell>
        <mxCell id="FhZEgIiry43uXNgDlU4w-18" value="" style="endArrow=classic;html=1;rounded=0;exitX=1;exitY=0.25;exitDx=0;exitDy=0;entryX=0;entryY=0.25;entryDx=0;entryDy=0;" edge="1" parent="1" source="FhZEgIiry43uXNgDlU4w-14" target="FhZEgIiry43uXNgDlU4w-17">
          <mxGeometry relative="1" as="geometry">
            <mxPoint x="235" y="427" as="sourcePoint" />
            <mxPoint x="350" y="423" as="targetPoint" />
          </mxGeometry>
        </mxCell>
        <mxCell id="FhZEgIiry43uXNgDlU4w-19" value="发起业务订购" style="edgeLabel;resizable=0;html=1;align=center;verticalAlign=middle;" connectable="0" vertex="1" parent="FhZEgIiry43uXNgDlU4w-18">
          <mxGeometry relative="1" as="geometry" />
        </mxCell>
        <mxCell id="FhZEgIiry43uXNgDlU4w-20" value="" style="rounded=0;whiteSpace=wrap;html=1;fillColor=#dae8fc;strokeColor=#6c8ebf;" vertex="1" parent="1">
          <mxGeometry x="480" y="420" width="20" height="70" as="geometry" />
        </mxCell>
        <mxCell id="FhZEgIiry43uXNgDlU4w-21" value="" style="endArrow=classic;html=1;rounded=0;exitX=1;exitY=0.25;exitDx=0;exitDy=0;entryX=0;entryY=0.25;entryDx=0;entryDy=0;" edge="1" parent="1" source="FhZEgIiry43uXNgDlU4w-17" target="FhZEgIiry43uXNgDlU4w-20">
          <mxGeometry relative="1" as="geometry">
            <mxPoint x="365" y="426" as="sourcePoint" />
            <mxPoint x="470" y="423" as="targetPoint" />
          </mxGeometry>
        </mxCell>
        <mxCell id="FhZEgIiry43uXNgDlU4w-22" value="同步订单数据" style="edgeLabel;resizable=0;html=1;align=center;verticalAlign=middle;" connectable="0" vertex="1" parent="FhZEgIiry43uXNgDlU4w-21">
          <mxGeometry relative="1" as="geometry" />
        </mxCell>
        <mxCell id="FhZEgIiry43uXNgDlU4w-23" value="&lt;font style=&quot;font-size: 14px;&quot;&gt;营业受理&lt;/font&gt;" style="rounded=1;whiteSpace=wrap;html=1;fillColor=#dae8fc;strokeColor=#6c8ebf;" vertex="1" parent="1">
          <mxGeometry x="30" y="270" width="90" height="40" as="geometry" />
        </mxCell>
        <mxCell id="FhZEgIiry43uXNgDlU4w-25" value="" style="endArrow=classic;html=1;rounded=0;exitX=1;exitY=0.25;exitDx=0;exitDy=0;entryX=0;entryY=0.25;entryDx=0;entryDy=0;" edge="1" parent="1" source="FhZEgIiry43uXNgDlU4w-20" target="FhZEgIiry43uXNgDlU4w-27">
          <mxGeometry relative="1" as="geometry">
            <mxPoint x="500" y="426" as="sourcePoint" />
            <mxPoint x="620" y="423" as="targetPoint" />
          </mxGeometry>
        </mxCell>
        <mxCell id="FhZEgIiry43uXNgDlU4w-26" value="同步订单数据" style="edgeLabel;resizable=0;html=1;align=center;verticalAlign=middle;" connectable="0" vertex="1" parent="FhZEgIiry43uXNgDlU4w-25">
          <mxGeometry relative="1" as="geometry" />
        </mxCell>
        <mxCell id="FhZEgIiry43uXNgDlU4w-27" value="" style="rounded=0;whiteSpace=wrap;html=1;fillColor=#dae8fc;strokeColor=#6c8ebf;" vertex="1" parent="1">
          <mxGeometry x="620" y="420" width="20" height="70" as="geometry" />
        </mxCell>
        <mxCell id="FhZEgIiry43uXNgDlU4w-28" value="" style="rounded=0;whiteSpace=wrap;html=1;fillColor=#dae8fc;strokeColor=#6c8ebf;" vertex="1" parent="1">
          <mxGeometry x="790" y="420" width="20" height="70" as="geometry" />
        </mxCell>
        <mxCell id="FhZEgIiry43uXNgDlU4w-29" value="" style="endArrow=classic;html=1;rounded=0;exitX=1;exitY=0.25;exitDx=0;exitDy=0;entryX=0;entryY=0.25;entryDx=0;entryDy=0;" edge="1" parent="1" source="FhZEgIiry43uXNgDlU4w-27" target="FhZEgIiry43uXNgDlU4w-28">
          <mxGeometry relative="1" as="geometry">
            <mxPoint x="640" y="426" as="sourcePoint" />
            <mxPoint x="750" y="426" as="targetPoint" />
          </mxGeometry>
        </mxCell>
        <mxCell id="FhZEgIiry43uXNgDlU4w-30" value="开通应用平台账号功能" style="edgeLabel;resizable=0;html=1;align=center;verticalAlign=middle;" connectable="0" vertex="1" parent="FhZEgIiry43uXNgDlU4w-29">
          <mxGeometry relative="1" as="geometry" />
        </mxCell>
        <mxCell id="FhZEgIiry43uXNgDlU4w-32" value="" style="endArrow=classic;html=1;rounded=0;entryX=1;entryY=0.75;entryDx=0;entryDy=0;" edge="1" parent="1" target="FhZEgIiry43uXNgDlU4w-28">
          <mxGeometry relative="1" as="geometry">
            <mxPoint x="810" y="430" as="sourcePoint" />
            <mxPoint x="810" y="467.25" as="targetPoint" />
            <Array as="points">
              <mxPoint x="870" y="430" />
              <mxPoint x="870" y="473" />
            </Array>
          </mxGeometry>
        </mxCell>
        <mxCell id="FhZEgIiry43uXNgDlU4w-34" value="应用账号、&lt;br style=&quot;border-color: var(--border-color);&quot;&gt;功能开通成功" style="edgeLabel;html=1;align=center;verticalAlign=middle;resizable=0;points=[];" vertex="1" connectable="0" parent="FhZEgIiry43uXNgDlU4w-32">
          <mxGeometry x="0.0162" y="-4" relative="1" as="geometry">
            <mxPoint as="offset" />
          </mxGeometry>
        </mxCell>
        <mxCell id="FhZEgIiry43uXNgDlU4w-35" value="" style="endArrow=classic;html=1;rounded=0;entryX=1;entryY=0.75;entryDx=0;entryDy=0;exitX=0;exitY=0.75;exitDx=0;exitDy=0;" edge="1" parent="1" source="FhZEgIiry43uXNgDlU4w-28" target="FhZEgIiry43uXNgDlU4w-27">
          <mxGeometry relative="1" as="geometry">
            <mxPoint x="792" y="462" as="sourcePoint" />
            <mxPoint x="800" y="433" as="targetPoint" />
          </mxGeometry>
        </mxCell>
        <mxCell id="FhZEgIiry43uXNgDlU4w-36" value="应用开通成功通知" style="edgeLabel;resizable=0;html=1;align=center;verticalAlign=middle;" connectable="0" vertex="1" parent="FhZEgIiry43uXNgDlU4w-35">
          <mxGeometry relative="1" as="geometry" />
        </mxCell>
        <mxCell id="FhZEgIiry43uXNgDlU4w-37" value="" style="endArrow=classic;html=1;rounded=0;entryX=1;entryY=0.75;entryDx=0;entryDy=0;exitX=0;exitY=0.75;exitDx=0;exitDy=0;" edge="1" parent="1" source="FhZEgIiry43uXNgDlU4w-27" target="FhZEgIiry43uXNgDlU4w-20">
          <mxGeometry relative="1" as="geometry">
            <mxPoint x="650" y="460" as="sourcePoint" />
            <mxPoint x="500" y="460" as="targetPoint" />
          </mxGeometry>
        </mxCell>
        <mxCell id="FhZEgIiry43uXNgDlU4w-38" value="应用开通成功通知" style="edgeLabel;resizable=0;html=1;align=center;verticalAlign=middle;" connectable="0" vertex="1" parent="FhZEgIiry43uXNgDlU4w-37">
          <mxGeometry relative="1" as="geometry" />
        </mxCell>
        <mxCell id="FhZEgIiry43uXNgDlU4w-39" value="" style="endArrow=classic;html=1;rounded=0;entryX=1;entryY=0.75;entryDx=0;entryDy=0;exitX=0;exitY=0.75;exitDx=0;exitDy=0;" edge="1" parent="1" source="FhZEgIiry43uXNgDlU4w-20" target="FhZEgIiry43uXNgDlU4w-17">
          <mxGeometry relative="1" as="geometry">
            <mxPoint x="485" y="460" as="sourcePoint" />
            <mxPoint x="365" y="460" as="targetPoint" />
          </mxGeometry>
        </mxCell>
        <mxCell id="FhZEgIiry43uXNgDlU4w-40" value="应用开通成功通知" style="edgeLabel;resizable=0;html=1;align=center;verticalAlign=middle;" connectable="0" vertex="1" parent="FhZEgIiry43uXNgDlU4w-39">
          <mxGeometry relative="1" as="geometry" />
        </mxCell>
        <mxCell id="FhZEgIiry43uXNgDlU4w-41" value="" style="endArrow=classic;html=1;rounded=0;entryX=1;entryY=0.5;entryDx=0;entryDy=0;exitX=0;exitY=0.75;exitDx=0;exitDy=0;" edge="1" parent="1" source="FhZEgIiry43uXNgDlU4w-17" target="FhZEgIiry43uXNgDlU4w-14">
          <mxGeometry relative="1" as="geometry">
            <mxPoint x="330" y="480" as="sourcePoint" />
            <mxPoint x="220" y="470" as="targetPoint" />
          </mxGeometry>
        </mxCell>
        <mxCell id="FhZEgIiry43uXNgDlU4w-42" value="正式单下发" style="edgeLabel;resizable=0;html=1;align=center;verticalAlign=middle;" connectable="0" vertex="1" parent="FhZEgIiry43uXNgDlU4w-41">
          <mxGeometry relative="1" as="geometry" />
        </mxCell>
        <mxCell id="FhZEgIiry43uXNgDlU4w-44" value="" style="rounded=0;whiteSpace=wrap;html=1;fillColor=#dae8fc;strokeColor=#6c8ebf;" vertex="1" parent="1">
          <mxGeometry x="215" y="600" width="20" height="90" as="geometry" />
        </mxCell>
        <mxCell id="FhZEgIiry43uXNgDlU4w-45" value="" style="endArrow=classic;html=1;rounded=0;exitX=1;exitY=0.75;exitDx=0;exitDy=0;entryX=0;entryY=0.5;entryDx=0;entryDy=0;" edge="1" parent="1" source="FhZEgIiry43uXNgDlU4w-14" target="FhZEgIiry43uXNgDlU4w-47">
          <mxGeometry relative="1" as="geometry">
            <mxPoint x="250" y="502" as="sourcePoint" />
            <mxPoint x="940" y="505" as="targetPoint" />
          </mxGeometry>
        </mxCell>
        <mxCell id="FhZEgIiry43uXNgDlU4w-47" value="" style="rounded=0;whiteSpace=wrap;html=1;fillColor=#dae8fc;strokeColor=#6c8ebf;" vertex="1" parent="1">
          <mxGeometry x="910" y="467" width="20" height="70" as="geometry" />
        </mxCell>
        <mxCell id="FhZEgIiry43uXNgDlU4w-48" value="" style="endArrow=classic;html=1;rounded=0;exitX=1;exitY=0.5;exitDx=0;exitDy=0;entryX=0.1;entryY=0.132;entryDx=0;entryDy=0;entryPerimeter=0;" edge="1" parent="1" source="FhZEgIiry43uXNgDlU4w-47" target="FhZEgIiry43uXNgDlU4w-50">
          <mxGeometry relative="1" as="geometry">
            <mxPoint x="245" y="515" as="sourcePoint" />
            <mxPoint x="1040" y="500" as="targetPoint" />
          </mxGeometry>
        </mxCell>
        <mxCell id="FhZEgIiry43uXNgDlU4w-49" value="派发调度中心" style="edgeLabel;resizable=0;html=1;align=center;verticalAlign=middle;" connectable="0" vertex="1" parent="FhZEgIiry43uXNgDlU4w-48">
          <mxGeometry relative="1" as="geometry" />
        </mxCell>
        <mxCell id="FhZEgIiry43uXNgDlU4w-50" value="" style="rounded=0;whiteSpace=wrap;html=1;fillColor=#dae8fc;strokeColor=#6c8ebf;" vertex="1" parent="1">
          <mxGeometry x="1040" y="473" width="20" height="210" as="geometry" />
        </mxCell>
        <mxCell id="FhZEgIiry43uXNgDlU4w-56" value="" style="endArrow=classic;html=1;rounded=0;" edge="1" parent="1">
          <mxGeometry relative="1" as="geometry">
            <mxPoint x="1060" y="488" as="sourcePoint" />
            <mxPoint x="1060" y="552" as="targetPoint" />
            <Array as="points">
              <mxPoint x="1100" y="488" />
              <mxPoint x="1100" y="552" />
            </Array>
          </mxGeometry>
        </mxCell>
        <mxCell id="FhZEgIiry43uXNgDlU4w-57" value="调测人员接单&lt;br&gt;上门安装" style="edgeLabel;html=1;align=center;verticalAlign=middle;resizable=0;points=[];" vertex="1" connectable="0" parent="FhZEgIiry43uXNgDlU4w-56">
          <mxGeometry x="0.0162" y="-4" relative="1" as="geometry">
            <mxPoint as="offset" />
          </mxGeometry>
        </mxCell>
        <mxCell id="FhZEgIiry43uXNgDlU4w-58" value="" style="endArrow=classic;html=1;rounded=0;entryX=0.95;entryY=0.852;entryDx=0;entryDy=0;entryPerimeter=0;" edge="1" parent="1" target="FhZEgIiry43uXNgDlU4w-50">
          <mxGeometry relative="1" as="geometry">
            <mxPoint x="1060" y="592" as="sourcePoint" />
            <mxPoint x="1060" y="650" as="targetPoint" />
            <Array as="points">
              <mxPoint x="1100" y="592" />
              <mxPoint x="1100" y="652" />
            </Array>
          </mxGeometry>
        </mxCell>
        <mxCell id="FhZEgIiry43uXNgDlU4w-59" value="产品调测" style="edgeLabel;html=1;align=center;verticalAlign=middle;resizable=0;points=[];" vertex="1" connectable="0" parent="FhZEgIiry43uXNgDlU4w-58">
          <mxGeometry x="0.0162" y="-4" relative="1" as="geometry">
            <mxPoint as="offset" />
          </mxGeometry>
        </mxCell>
        <mxCell id="FhZEgIiry43uXNgDlU4w-60" value="" style="rounded=0;whiteSpace=wrap;html=1;fillColor=#dae8fc;strokeColor=#6c8ebf;" vertex="1" parent="1">
          <mxGeometry x="910" y="600" width="20" height="70" as="geometry" />
        </mxCell>
        <mxCell id="FhZEgIiry43uXNgDlU4w-61" value="" style="endArrow=classic;html=1;rounded=0;entryX=1;entryY=0.75;entryDx=0;entryDy=0;" edge="1" parent="1">
          <mxGeometry relative="1" as="geometry">
            <mxPoint x="1040" y="635" as="sourcePoint" />
            <mxPoint x="930" y="634.5" as="targetPoint" />
          </mxGeometry>
        </mxCell>
        <mxCell id="FhZEgIiry43uXNgDlU4w-62" value="调测工单报竣" style="edgeLabel;resizable=0;html=1;align=center;verticalAlign=middle;" connectable="0" vertex="1" parent="FhZEgIiry43uXNgDlU4w-61">
          <mxGeometry relative="1" as="geometry" />
        </mxCell>
        <mxCell id="FhZEgIiry43uXNgDlU4w-63" value="" style="endArrow=classic;html=1;rounded=0;exitX=0;exitY=0.25;exitDx=0;exitDy=0;entryX=1;entryY=0.25;entryDx=0;entryDy=0;" edge="1" parent="1" source="FhZEgIiry43uXNgDlU4w-60" target="FhZEgIiry43uXNgDlU4w-44">
          <mxGeometry relative="1" as="geometry">
            <mxPoint x="827" y="610" as="sourcePoint" />
            <mxPoint x="330" y="610" as="targetPoint" />
          </mxGeometry>
        </mxCell>
        <mxCell id="FhZEgIiry43uXNgDlU4w-64" value="省编排订单报竣" style="edgeLabel;resizable=0;html=1;align=center;verticalAlign=middle;" connectable="0" vertex="1" parent="FhZEgIiry43uXNgDlU4w-63">
          <mxGeometry relative="1" as="geometry" />
        </mxCell>
        <mxCell id="FhZEgIiry43uXNgDlU4w-66" value="" style="rounded=0;whiteSpace=wrap;html=1;fillColor=#dae8fc;strokeColor=#6c8ebf;" vertex="1" parent="1">
          <mxGeometry x="345" y="640" width="20" height="40" as="geometry" />
        </mxCell>
        <mxCell id="FhZEgIiry43uXNgDlU4w-67" value="" style="endArrow=classic;html=1;rounded=0;exitX=1;exitY=0.678;exitDx=0;exitDy=0;entryX=0;entryY=0.5;entryDx=0;entryDy=0;exitPerimeter=0;" edge="1" parent="1" source="FhZEgIiry43uXNgDlU4w-44" target="FhZEgIiry43uXNgDlU4w-66">
          <mxGeometry relative="1" as="geometry">
            <mxPoint x="235" y="662" as="sourcePoint" />
            <mxPoint x="345" y="660" as="targetPoint" />
          </mxGeometry>
        </mxCell>
        <mxCell id="FhZEgIiry43uXNgDlU4w-68" value="订单报竣" style="edgeLabel;resizable=0;html=1;align=center;verticalAlign=middle;" connectable="0" vertex="1" parent="FhZEgIiry43uXNgDlU4w-67">
          <mxGeometry relative="1" as="geometry" />
        </mxCell>
        <mxCell id="FhZEgIiry43uXNgDlU4w-69" value="" style="rounded=0;whiteSpace=wrap;html=1;fillColor=#dae8fc;strokeColor=#6c8ebf;" vertex="1" parent="1">
          <mxGeometry x="480" y="640" width="20" height="40" as="geometry" />
        </mxCell>
        <mxCell id="FhZEgIiry43uXNgDlU4w-70" value="" style="endArrow=classic;html=1;rounded=0;exitX=1;exitY=0.5;exitDx=0;exitDy=0;" edge="1" parent="1" source="FhZEgIiry43uXNgDlU4w-66">
          <mxGeometry relative="1" as="geometry">
            <mxPoint x="380" y="660.5" as="sourcePoint" />
            <mxPoint x="480" y="660" as="targetPoint" />
          </mxGeometry>
        </mxCell>
        <mxCell id="FhZEgIiry43uXNgDlU4w-71" value="订单报竣" style="edgeLabel;resizable=0;html=1;align=center;verticalAlign=middle;" connectable="0" vertex="1" parent="FhZEgIiry43uXNgDlU4w-70">
          <mxGeometry relative="1" as="geometry" />
        </mxCell>
        <mxCell id="FhZEgIiry43uXNgDlU4w-72" value="" style="rounded=0;whiteSpace=wrap;html=1;fillColor=#dae8fc;strokeColor=#6c8ebf;" vertex="1" parent="1">
          <mxGeometry x="620" y="640" width="20" height="40" as="geometry" />
        </mxCell>
        <mxCell id="FhZEgIiry43uXNgDlU4w-73" value="" style="endArrow=classic;html=1;rounded=0;exitX=1;exitY=0.5;exitDx=0;exitDy=0;entryX=0;entryY=0.5;entryDx=0;entryDy=0;" edge="1" parent="1" source="FhZEgIiry43uXNgDlU4w-69" target="FhZEgIiry43uXNgDlU4w-72">
          <mxGeometry relative="1" as="geometry">
            <mxPoint x="520" y="659.5" as="sourcePoint" />
            <mxPoint x="635" y="659.5" as="targetPoint" />
          </mxGeometry>
        </mxCell>
        <mxCell id="FhZEgIiry43uXNgDlU4w-74" value="订单报竣" style="edgeLabel;resizable=0;html=1;align=center;verticalAlign=middle;" connectable="0" vertex="1" parent="FhZEgIiry43uXNgDlU4w-73">
          <mxGeometry relative="1" as="geometry" />
        </mxCell>
        <mxCell id="FhZEgIiry43uXNgDlU4w-85" value="" style="endArrow=none;dashed=1;html=1;rounded=0;entryX=0.5;entryY=1;entryDx=0;entryDy=0;" edge="1" parent="1" target="FhZEgIiry43uXNgDlU4w-8">
          <mxGeometry width="50" height="50" relative="1" as="geometry">
            <mxPoint x="1050" y="720" as="sourcePoint" />
            <mxPoint x="1040" y="360" as="targetPoint" />
          </mxGeometry>
        </mxCell>
      </root>
    </mxGraphModel>
  </diagram>
</mxfile>
